<svg width="36" height="36" viewBox="0 0 36 36" fill="none" xmlns="http://www.w3.org/2000/svg">
<rect opacity="0.1" width="36" height="36" rx="18" fill="#0473EA"/>
<path d="M12.6875 17.2188C12.2858 17.2188 11.893 17.3379 11.559 17.5611C11.225 17.7843 10.9646 18.1015 10.8109 18.4727C10.6571 18.8438 10.6169 19.2523 10.6953 19.6463C10.7737 20.0403 10.9671 20.4022 11.2512 20.6863C11.5353 20.9704 11.8972 21.1638 12.2912 21.2422C12.6852 21.3206 13.0937 21.2804 13.4648 21.1266C13.836 20.9729 14.1532 20.7125 14.3764 20.3785C14.5996 20.0445 14.7188 19.6517 14.7188 19.25C14.7181 18.7115 14.5039 18.1952 14.1231 17.8144C13.7423 17.4336 13.226 17.2194 12.6875 17.2188ZM12.6875 20.1875C12.5021 20.1875 12.3208 20.1325 12.1667 20.0295C12.0125 19.9265 11.8923 19.7801 11.8214 19.6088C11.7504 19.4375 11.7318 19.249 11.768 19.0671C11.8042 18.8852 11.8935 18.7182 12.0246 18.5871C12.1557 18.456 12.3227 18.3667 12.5046 18.3305C12.6865 18.2943 12.875 18.3129 13.0463 18.3839C13.2176 18.4548 13.364 18.575 13.467 18.7292C13.57 18.8833 13.625 19.0646 13.625 19.25C13.625 19.4986 13.5262 19.7371 13.3504 19.9129C13.1746 20.0887 12.9361 20.1875 12.6875 20.1875Z" fill="#0473EA"/>
<path d="M23.9375 17.2188C23.5358 17.2188 23.143 17.3379 22.809 17.5611C22.475 17.7843 22.2146 18.1015 22.0609 18.4727C21.9071 18.8438 21.8669 19.2523 21.9453 19.6463C22.0237 20.0403 22.2171 20.4022 22.5012 20.6863C22.7853 20.9704 23.1472 21.1638 23.5412 21.2422C23.9352 21.3206 24.3437 21.2804 24.7148 21.1266C25.086 20.9729 25.4032 20.7125 25.6264 20.3785C25.8496 20.0445 25.9688 19.6517 25.9688 19.25C25.9681 18.7115 25.7539 18.1952 25.3731 17.8144C24.9923 17.4336 24.476 17.2194 23.9375 17.2188ZM23.9375 20.1875C23.7521 20.1875 23.5708 20.1325 23.4167 20.0295C23.2625 19.9265 23.1423 19.7801 23.0714 19.6088C23.0004 19.4375 22.9818 19.249 23.018 19.0671C23.0542 18.8852 23.1435 18.7182 23.2746 18.5871C23.4057 18.456 23.5727 18.3667 23.7546 18.3305C23.9365 18.2943 24.125 18.3129 24.2963 18.3839C24.4676 18.4548 24.614 18.575 24.717 18.7292C24.82 18.8833 24.875 19.0646 24.875 19.25C24.875 19.4986 24.7762 19.7371 24.6004 19.9129C24.4246 20.0887 24.1861 20.1875 23.9375 20.1875Z" fill="#0473EA"/>
<path d="M26.6484 15.5406L23 14.875L19.8939 12.2979C19.5861 12.045 19.2002 11.9066 18.8018 11.9063H14.2258C13.9679 11.9056 13.7132 11.9634 13.4808 12.0751C13.2484 12.1868 13.0442 12.3496 12.8836 12.5513L10.8997 14.875H9.5625C9.18967 14.8754 8.83222 15.0237 8.56859 15.2873C8.30495 15.551 8.15666 15.9084 8.15625 16.2813V18C8.15676 18.4557 8.338 18.8926 8.66022 19.2148C8.98244 19.537 9.41931 19.7182 9.875 19.7188H10.2322C10.1629 19.3571 10.1743 18.9847 10.2656 18.628C10.3569 18.2713 10.5259 17.9391 10.7605 17.6553C10.995 17.3715 11.2894 17.143 11.6225 16.9862C11.9556 16.8293 12.3193 16.748 12.6875 16.748C13.0557 16.748 13.4194 16.8293 13.7525 16.9862C14.0856 17.143 14.38 17.3715 14.6145 17.6553C14.8491 17.9391 15.0181 18.2713 15.1094 18.628C15.2007 18.9847 15.2121 19.3571 15.1428 19.7188H21.4822C21.4129 19.3571 21.4243 18.9847 21.5156 18.628C21.6069 18.2713 21.7759 17.9391 22.0105 17.6553C22.245 17.3715 22.5394 17.143 22.8725 16.9862C23.2056 16.8293 23.5693 16.748 23.9375 16.748C24.3057 16.748 24.6694 16.8293 25.0025 16.9862C25.3356 17.143 25.63 17.3715 25.8645 17.6553C26.0991 17.9391 26.2681 18.2713 26.3594 18.628C26.4507 18.9847 26.4621 19.3571 26.3928 19.7188H26.4375C26.8103 19.7183 27.1678 19.5701 27.4314 19.3064C27.695 19.0428 27.8433 18.6853 27.8438 18.3125V16.9309C27.8454 16.5941 27.7254 16.2679 27.5058 16.0125C27.2862 15.757 26.9817 15.5895 26.6484 15.5406ZM15.0312 14.4063C15.0312 14.5306 14.9819 14.6498 14.894 14.7377C14.806 14.8256 14.6868 14.875 14.5625 14.875H12.5018C12.4569 14.875 12.4131 14.8622 12.3753 14.8381C12.3376 14.8139 12.3075 14.7794 12.2888 14.7387C12.27 14.698 12.2633 14.6528 12.2695 14.6084C12.2756 14.564 12.2944 14.5223 12.3235 14.4883L13.6874 12.8906C13.7315 12.8391 13.7861 12.7978 13.8477 12.7695C13.9092 12.7412 13.9762 12.7265 14.0439 12.7266H14.5625C14.6868 12.7266 14.806 12.776 14.894 12.8639C14.9819 12.9518 15.0312 13.071 15.0312 13.1953V14.4063ZM17.375 16.5938H16.75C16.6257 16.5938 16.5065 16.5444 16.4185 16.4565C16.3306 16.3686 16.2812 16.2493 16.2812 16.125C16.2812 16.0007 16.3306 15.8815 16.4185 15.7935C16.5065 15.7056 16.6257 15.6563 16.75 15.6563H17.375C17.4993 15.6563 17.6185 15.7056 17.7065 15.7935C17.7944 15.8815 17.8438 16.0007 17.8438 16.125C17.8438 16.2493 17.7944 16.3686 17.7065 16.4565C17.6185 16.5444 17.4993 16.5938 17.375 16.5938ZM21.0656 14.8865L16.5927 14.8761C16.4685 14.8758 16.3496 14.8263 16.2619 14.7384C16.1742 14.6505 16.125 14.5315 16.125 14.4073V13.1953C16.125 13.071 16.1744 12.9518 16.2623 12.8639C16.3502 12.776 16.4694 12.7266 16.5938 12.7266H18.8417C18.9471 12.7266 19.0494 12.7621 19.1321 12.8273L21.2113 14.468C21.2496 14.4982 21.2776 14.5395 21.2913 14.5864C21.3049 14.6332 21.3037 14.6831 21.2876 14.7292C21.2716 14.7752 21.2416 14.8152 21.2018 14.8434C21.162 14.8716 21.1144 14.8866 21.0656 14.8865Z" fill="#0473EA"/>
</svg>
