<svg width="36" height="36" viewBox="0 0 36 36" fill="none" xmlns="http://www.w3.org/2000/svg">
<rect opacity="0.1" width="36" height="36" rx="18" fill="#0473EA"/>
<g clip-path="url(#clip0_1_1507)">
<path d="M17.6193 9.66667C16.2441 9.66667 14.3658 10.5032 13.4463 11.5254L8.73437 16.7611C8.1209 17.4424 7.83438 18.7176 8.09815 19.5966L9.64013 24.7365C9.90311 25.6145 10.8691 26.3333 11.7861 26.3333H26.3333C27.2545 26.3333 28 25.587 28 24.6665V9.66663L17.6193 9.66667ZM10.6111 17.1664L14.6848 12.6404C15.2903 11.9681 16.7161 11.3332 17.6193 11.3332H26.3333V17.1664H10.6111ZM26.3333 20.4998H23V18.8331H26.3333V20.4998Z" fill="#0473EA"/>
</g>
<defs>
<clipPath id="clip0_1_1507">
<rect width="20" height="20" fill="white" transform="translate(8 8)"/>
</clipPath>
</defs>
</svg>
