<svg width="36" height="36" viewBox="0 0 36 36" fill="none" xmlns="http://www.w3.org/2000/svg">
<rect opacity="0.1" width="36" height="36" rx="18" fill="#0473EA"/>
<path d="M26.6667 14.3333H24.6667C24.2985 14.3333 24 14.6318 24 15V21C24 21.3682 24.2985 21.6667 24.6667 21.6667H26.6667C27.0349 21.6667 27.3333 21.3682 27.3333 21V15C27.3333 14.6318 27.0349 14.3333 26.6667 14.3333Z" fill="#0473EA"/>
<path d="M11.3334 14.3333H9.33341C8.96522 14.3333 8.66675 14.6318 8.66675 15V21C8.66675 21.3682 8.96522 21.6667 9.33341 21.6667H11.3334C11.7016 21.6667 12.0001 21.3682 12.0001 21V15C12.0001 14.6318 11.7016 14.3333 11.3334 14.3333Z" fill="#0473EA"/>
<path d="M17.085 18.9687C17.3357 19.1957 17.6618 19.3215 18 19.3215C18.3382 19.3215 18.6643 19.1957 18.915 18.9687C19.3445 18.5613 19.9137 18.3339 20.5057 18.3333H22V17.6667H20.5057C19.9137 17.666 19.3445 17.4386 18.915 17.0313C18.6643 16.8043 18.3382 16.6786 18 16.6786C17.6618 16.6786 17.3357 16.8043 17.085 17.0313C16.6555 17.4387 16.0863 17.6661 15.4943 17.6667H14V18.3333H15.4943C16.0863 18.334 16.6555 18.5614 17.085 18.9687Z" fill="#0473EA"/>
<path d="M12.6667 16.3333V19.6667H13.0001C13.0885 19.6667 13.1733 19.6316 13.2358 19.569C13.2983 19.5065 13.3334 19.4217 13.3334 19.3333V16.6667C13.3334 16.5783 13.2983 16.4935 13.2358 16.431C13.1733 16.3685 13.0885 16.3333 13.0001 16.3333H12.6667Z" fill="#0473EA"/>
<path d="M22.6667 19.3333C22.6667 19.4217 22.7019 19.5065 22.7644 19.569C22.8269 19.6316 22.9117 19.6667 23.0001 19.6667H23.3334V16.3333H23.0001C22.9117 16.3333 22.8269 16.3685 22.7644 16.431C22.7019 16.4935 22.6667 16.5783 22.6667 16.6667V19.3333Z" fill="#0473EA"/>
</svg>
