<svg width="36" height="36" viewBox="0 0 36 36" fill="none" xmlns="http://www.w3.org/2000/svg">
<rect opacity="0.1" width="36" height="36" rx="18" fill="#0473EA"/>
<g clip-path="url(#clip0_1_1519)">
<path d="M16.8008 10.8H19.2008V11.4H16.8008V10.8Z" fill="#0473EA"/>
<path d="M19.7992 9.9001C19.7992 9.82053 19.7676 9.74423 19.7114 9.68797C19.6551 9.6317 19.5788 9.6001 19.4992 9.6001H16.4992C16.4197 9.6001 16.3433 9.6317 16.2871 9.68797C16.2308 9.74423 16.1992 9.82053 16.1992 9.9001V10.2001H19.7992V9.9001Z" fill="#0473EA"/>
<path d="M25.5252 10.9977L23.5098 9.69627C23.4436 9.6534 23.3696 9.624 23.2921 9.60974C23.2146 9.59549 23.135 9.59665 23.0579 9.61318C22.9808 9.6297 22.9077 9.66125 22.8428 9.70603C22.7779 9.75082 22.7225 9.80795 22.6797 9.87417L25.7037 11.8281C25.7898 11.6942 25.8194 11.5316 25.7859 11.376C25.7525 11.2204 25.6587 11.0843 25.5252 10.9977Z" fill="#0473EA"/>
<path d="M10.9575 12.8498L13.986 10.9028L13.647 10.3784L10.623 12.3323L10.9575 12.8498Z" fill="#0473EA"/>
<path d="M11.2966 21.7818C11.3356 21.9029 11.412 22.0087 11.5147 22.0838C11.6175 22.1589 11.7414 22.1996 11.8687 22.2H12.8452L10.7704 15.4053L9.9331 15.8232C9.80553 15.8879 9.705 15.9958 9.64932 16.1275C9.59364 16.2593 9.5864 16.4066 9.6289 16.5432L11.2966 21.7818Z" fill="#0473EA"/>
<path d="M20.7008 25.8H15.3008V26.1C15.3008 26.1796 15.3324 26.2559 15.3886 26.3122C15.4449 26.3684 15.5212 26.4 15.6008 26.4H20.4008C20.4803 26.4 20.5567 26.3684 20.6129 26.3122C20.6692 26.2559 20.7008 26.1796 20.7008 26.1V25.8Z" fill="#0473EA"/>
<path d="M26.0664 15.8232L25.2306 15.4053L23.1543 22.2H24.1308C24.2579 22.1996 24.3817 22.1591 24.4843 22.0842C24.587 22.0093 24.6634 21.9039 24.7026 21.783L26.3706 16.5438C26.4132 16.4071 26.4061 16.2597 26.3504 16.1278C26.2947 15.9959 26.1941 15.8879 26.0664 15.8232Z" fill="#0473EA"/>
<path d="M14.2551 23.9794C14.3815 24.0135 14.4932 24.088 14.5735 24.1914C14.6537 24.2948 14.698 24.4215 14.6997 24.5524V24.9001C14.6997 24.9796 14.7313 25.0559 14.7876 25.1122C14.8439 25.1685 14.9202 25.2001 14.9997 25.2001H20.9997C21.0793 25.2001 21.1556 25.1685 21.2119 25.1122C21.2681 25.0559 21.2997 24.9796 21.2997 24.9001V24.5524C21.3015 24.4215 21.3458 24.2948 21.426 24.1914C21.5063 24.088 21.618 24.0135 21.7443 23.9794C21.8252 23.9556 21.899 23.9122 21.959 23.853C22.019 23.7938 22.0633 23.7206 22.0881 23.6401L25.0866 13.8268C25.1035 13.7704 25.1017 13.7101 25.0814 13.6549C25.0611 13.5997 25.0235 13.5525 24.9741 13.5205L21.4341 11.2453C21.4073 11.2279 21.3752 11.2203 21.3434 11.2238C21.3116 11.2273 21.282 11.2417 21.2595 11.2645L20.6118 11.9122C20.5556 11.9684 20.4793 12 20.3997 12.0001H15.5997C15.5202 12 15.4439 11.9684 15.3876 11.9122L14.7384 11.2627C14.7123 11.2364 14.6768 11.2217 14.6397 11.2216C14.6129 11.2217 14.5867 11.2294 14.5641 11.2438L11.0241 13.519C10.9748 13.551 10.9371 13.5981 10.9168 13.6533C10.8965 13.7086 10.8947 13.7689 10.9116 13.8253L13.9116 23.6386C13.9362 23.7194 13.9804 23.7928 14.0404 23.8523C14.1004 23.9118 14.1741 23.9554 14.2551 23.9794ZM12.8997 15.0001C12.8993 14.5647 13.0342 14.1399 13.286 13.7847C13.5377 13.4295 13.8938 13.1614 14.3047 13.0176C14.7157 12.8738 15.1612 12.8614 15.5795 12.9821C15.9978 13.1029 16.3681 13.3508 16.6392 13.6915L20.0292 14.3398C20.5154 14.0849 21.082 14.0307 21.6076 14.1887C22.1333 14.3468 22.576 14.7046 22.8409 15.1853C23.1058 15.6661 23.1717 16.2315 23.0245 16.7603C22.8773 17.289 22.5288 17.7391 22.0536 18.0139L20.6679 20.6101C20.688 20.7391 20.6987 20.8695 20.6997 21.0001C20.7009 21.3961 20.615 21.7876 20.448 22.1468C20.281 22.5059 20.037 22.8239 19.7334 23.0782C19.4297 23.3325 19.0739 23.5169 18.691 23.6183C18.3081 23.7197 17.9076 23.7356 17.5179 23.6649C17.1282 23.5943 16.7588 23.4387 16.4359 23.2093C16.1131 22.9799 15.8446 22.6823 15.6496 22.3375C15.4546 21.9928 15.3379 21.6093 15.3076 21.2144C15.2774 20.8195 15.3344 20.4228 15.4746 20.0524L14.1546 16.9216C13.7818 16.7573 13.4646 16.4883 13.2418 16.1472C13.019 15.806 12.9002 15.4075 12.8997 15.0001Z" fill="#0473EA"/>
<path d="M18.0004 18.8999C17.5851 18.8999 17.179 19.0231 16.8337 19.2538C16.4884 19.4846 16.2192 19.8125 16.0602 20.1963C15.9013 20.58 15.8597 21.0022 15.9407 21.4096C16.0218 21.817 16.2218 22.1911 16.5155 22.4848C16.8092 22.7785 17.1833 22.9785 17.5907 23.0596C17.9981 23.1406 18.4203 23.099 18.804 22.94C19.1878 22.7811 19.5157 22.5119 19.7465 22.1666C19.9772 21.8213 20.1004 21.4152 20.1004 20.9999C20.0997 20.4432 19.8782 19.9094 19.4845 19.5158C19.0909 19.1221 18.5571 18.9006 18.0004 18.8999ZM18.0004 22.1999C17.7631 22.1999 17.531 22.1295 17.3337 21.9977C17.1364 21.8658 16.9826 21.6784 16.8917 21.4591C16.8009 21.2399 16.7771 20.9986 16.8234 20.7658C16.8698 20.533 16.984 20.3192 17.1519 20.1514C17.3197 19.9836 17.5335 19.8693 17.7663 19.823C17.9991 19.7767 18.2403 19.8004 18.4596 19.8912C18.6789 19.9821 18.8663 20.1359 18.9982 20.3332C19.13 20.5306 19.2004 20.7626 19.2004 20.9999C19.2004 21.3182 19.074 21.6234 18.8489 21.8484C18.6239 22.0735 18.3187 22.1999 18.0004 22.1999Z" fill="#0473EA"/>
<path d="M18.0004 21.5999C18.3318 21.5999 18.6004 21.3313 18.6004 20.9999C18.6004 20.6685 18.3318 20.3999 18.0004 20.3999C17.669 20.3999 17.4004 20.6685 17.4004 20.9999C17.4004 21.3313 17.669 21.5999 18.0004 21.5999Z" fill="#0473EA"/>
<path d="M10.296 11.8285L13.3194 9.87459C13.233 9.74098 13.0971 9.64715 12.9416 9.61373C12.786 9.58031 12.6236 9.61005 12.4899 9.69639L10.4733 10.9981C10.4071 11.0409 10.35 11.0964 10.3053 11.1613C10.2605 11.2262 10.229 11.2992 10.2125 11.3763C10.196 11.4534 10.1949 11.533 10.2091 11.6105C10.2234 11.6881 10.2528 11.762 10.2957 11.8282L10.296 11.8285Z" fill="#0473EA"/>
<path d="M25.3786 12.3323L22.3546 10.3784L22.0156 10.9028L25.0441 12.8498L25.3786 12.3323Z" fill="#0473EA"/>
<path d="M14.9992 15.3C15.1649 15.3 15.2992 15.1656 15.2992 15C15.2992 14.8343 15.1649 14.7 14.9992 14.7C14.8335 14.7 14.6992 14.8343 14.6992 15C14.6992 15.1656 14.8335 15.3 14.9992 15.3Z" fill="#0473EA"/>
<path d="M16.5 15C16.5 14.7033 16.412 14.4133 16.2472 14.1666C16.0824 13.92 15.8481 13.7277 15.574 13.6142C15.2999 13.5006 14.9983 13.4709 14.7074 13.5288C14.4164 13.5867 14.1491 13.7296 13.9393 13.9393C13.7296 14.1491 13.5867 14.4164 13.5288 14.7074C13.4709 14.9983 13.5006 15.2999 13.6142 15.574C13.7277 15.8481 13.92 16.0824 14.1666 16.2472C14.4133 16.412 14.7033 16.5 15 16.5C15.3977 16.4995 15.7789 16.3413 16.0601 16.0601C16.3413 15.7789 16.4995 15.3977 16.5 15ZM14.1 15C14.1 14.822 14.1528 14.648 14.2517 14.5C14.3506 14.352 14.4911 14.2366 14.6556 14.1685C14.82 14.1004 15.001 14.0826 15.1756 14.1173C15.3502 14.152 15.5105 14.2377 15.6364 14.3636C15.7623 14.4895 15.848 14.6498 15.8827 14.8244C15.9174 14.999 15.8996 15.18 15.8315 15.3444C15.7634 15.5089 15.648 15.6494 15.5 15.7483C15.352 15.8472 15.178 15.9 15 15.9C14.7613 15.9 14.5324 15.8052 14.3636 15.6364C14.1948 15.4676 14.1 15.2387 14.1 15Z" fill="#0473EA"/>
<path d="M14.9989 17.1C14.9584 17.1 14.9188 17.0961 14.8789 17.094L15.8428 19.3818C16.1186 19.0124 16.4846 18.72 16.9057 18.5326C17.3269 18.3452 17.7891 18.2691 18.2481 18.3115C18.7071 18.354 19.1475 18.5136 19.5272 18.775C19.9068 19.0365 20.213 19.3911 20.4163 19.8048L21.2263 18.2871C20.8075 18.3333 20.3845 18.2523 20.0124 18.0547C19.6403 17.8571 19.3364 17.5519 19.1402 17.179C18.9441 16.8061 18.8648 16.3828 18.9127 15.9642C18.9606 15.5456 19.1336 15.1512 19.4089 14.8323L17.0029 14.3721C17.1014 14.6865 17.1246 15.0198 17.0705 15.3448C17.0163 15.6699 16.8865 15.9777 16.6914 16.2433C16.4963 16.5088 16.2414 16.7248 15.9474 16.8736C15.6534 17.0224 15.3284 17.1 14.9989 17.1Z" fill="#0473EA"/>
<path d="M20.9998 17.7C21.2964 17.7 21.5864 17.612 21.8331 17.4472C22.0798 17.2824 22.272 17.0481 22.3856 16.774C22.4991 16.4999 22.5288 16.1983 22.4709 15.9074C22.4131 15.6164 22.2702 15.3491 22.0604 15.1394C21.8506 14.9296 21.5834 14.7867 21.2924 14.7288C21.0014 14.671 20.6998 14.7007 20.4257 14.8142C20.1516 14.9277 19.9174 15.12 19.7526 15.3667C19.5877 15.6133 19.4998 15.9033 19.4998 16.2C19.5002 16.5977 19.6584 16.9789 19.9396 17.2601C20.2208 17.5413 20.6021 17.6995 20.9998 17.7ZM20.9998 15.3C21.1778 15.3 21.3518 15.3528 21.4998 15.4517C21.6478 15.5506 21.7631 15.6911 21.8312 15.8556C21.8994 16.0201 21.9172 16.201 21.8825 16.3756C21.8477 16.5502 21.762 16.7105 21.6362 16.8364C21.5103 16.9623 21.3499 17.048 21.1753 17.0827C21.0008 17.1174 20.8198 17.0996 20.6553 17.0315C20.4909 16.9634 20.3503 16.848 20.2514 16.7C20.1525 16.552 20.0998 16.378 20.0998 16.2C20.0998 15.9613 20.1946 15.7324 20.3634 15.5636C20.5321 15.3948 20.7611 15.3 20.9998 15.3Z" fill="#0473EA"/>
<path d="M20.9992 16.4999C21.1649 16.4999 21.2992 16.3656 21.2992 16.1999C21.2992 16.0342 21.1649 15.8999 20.9992 15.8999C20.8335 15.8999 20.6992 16.0342 20.6992 16.1999C20.6992 16.3656 20.8335 16.4999 20.9992 16.4999Z" fill="#0473EA"/>
</g>
<defs>
<clipPath id="clip0_1_1519">
<rect width="18" height="18" fill="white" transform="translate(9 9)"/>
</clipPath>
</defs>
</svg>
