<svg width="48" height="48" viewBox="0 0 48 48" fill="none" xmlns="http://www.w3.org/2000/svg">
<rect opacity="0.1" width="48" height="48" rx="24" fill="#0473EA"/>
<g clip-path="url(#clip0_1_1591)">
<path d="M28.2656 20.5312C24.0009 20.5312 20.5312 24.0009 20.5312 28.2656C20.5312 32.5304 24.0009 36 28.2656 36C32.5304 36 36 32.5304 36 28.2656C36 24.0009 32.5304 20.5312 28.2656 20.5312ZM28.2656 27.5625C29.4288 27.5625 30.375 28.5087 30.375 29.6719C30.375 30.5873 29.7854 31.3605 28.9688 31.6517V33.1875H27.5625V31.6517C26.7458 31.3605 26.1562 30.5873 26.1562 29.6719H27.5625C27.5625 30.0598 27.8777 30.375 28.2656 30.375C28.6536 30.375 28.9688 30.0598 28.9688 29.6719C28.9688 29.2839 28.6536 28.9688 28.2656 28.9688C27.1025 28.9688 26.1562 28.0225 26.1562 26.8594C26.1562 25.9439 26.7458 25.1708 27.5625 24.8795V23.3438H28.9688V24.8795C29.7854 25.1708 30.375 25.9439 30.375 26.8594H28.9688C28.9688 26.4714 28.6536 26.1562 28.2656 26.1562C27.8777 26.1562 27.5625 26.4714 27.5625 26.8594C27.5625 27.2473 27.8777 27.5625 28.2656 27.5625Z" fill="#0473EA"/>
<path d="M19.8281 20.5312C24.165 20.5312 27.5625 18.678 27.5625 16.3125C27.5625 13.947 24.165 12 19.8281 12C15.4913 12 12 13.947 12 16.3125C12 18.678 15.4913 20.5312 19.8281 20.5312Z" fill="#0473EA"/>
<path d="M12 27.8231V28.9687C12 31.3342 15.4913 33.1875 19.8281 33.1875C20.0741 33.1875 20.3125 33.1649 20.5547 33.153C20.0153 32.305 19.6131 31.364 19.3763 30.3581C16.2401 30.2715 13.517 29.3078 12 27.8231Z" fill="#0473EA"/>
<path d="M19.1588 28.9329C19.1427 28.7118 19.125 28.4909 19.125 28.2656C19.125 27.5327 19.221 26.8232 19.3848 26.1397C16.2448 26.0546 13.5183 25.0904 12 23.6043V24.75C12 26.99 15.1529 28.7504 19.1588 28.9329Z" fill="#0473EA"/>
<path d="M19.8281 24.75C19.8289 24.75 19.8295 24.7499 19.8303 24.7499C20.294 23.6416 20.9681 22.6425 21.8053 21.8054C21.1702 21.8857 20.514 21.9375 19.8281 21.9375C16.4898 21.9375 13.5903 20.942 12 19.3856V20.5313C12 22.8968 15.4913 24.75 19.8281 24.75Z" fill="#0473EA"/>
</g>
<defs>
<clipPath id="clip0_1_1591">
<rect width="24" height="24" fill="white" transform="translate(12 12)"/>
</clipPath>
</defs>
</svg>
