<svg width="36" height="36" viewBox="0 0 36 36" fill="none" xmlns="http://www.w3.org/2000/svg">
<rect opacity="0.1" width="36" height="36" rx="18" fill="#0473EA"/>
<g clip-path="url(#clip0_1_1443)">
<path d="M16.9043 19.684C16.9043 20.2884 17.396 20.78 18.0003 20.78C18.6047 20.78 19.0964 20.2884 19.0964 19.684C19.0964 19.2241 18.5411 16.3105 18.0003 13.6166C17.4595 16.3105 16.9043 19.2241 16.9043 19.684Z" fill="#0473EA"/>
<path d="M12.0095 12.3882L14.4987 14.8774C15.3234 14.1966 16.3489 13.751 17.4717 13.6437V10.1257C15.4374 10.2424 13.5305 11.0323 12.0095 12.3882Z" fill="#0473EA"/>
<path d="M24.7375 13.1353L22.2483 15.6245C22.9291 16.4491 23.3747 17.4747 23.482 18.5974H27C26.8832 16.5631 26.0934 14.6563 24.7375 13.1353Z" fill="#0473EA"/>
<path d="M18.5273 10.1257V13.6437C19.6501 13.751 20.6756 14.1966 21.5003 14.8774L23.9895 12.3882C22.4685 11.0323 20.5616 10.2424 18.5273 10.1257Z" fill="#0473EA"/>
<path d="M21.895 23.0201L21.5215 23.3936L24.0022 25.8743L24.3757 25.5008C25.9535 23.9231 26.8738 21.8635 27.0007 19.654H23.4831C23.3629 20.9256 22.8097 22.1054 21.895 23.0201Z" fill="#0473EA"/>
<path d="M9 18.5974H12.518C12.6253 17.4747 13.0709 16.4491 13.7517 15.6245L11.2625 13.1353C9.90661 14.6563 9.11678 16.5631 9 18.5974Z" fill="#0473EA"/>
<path d="M11.6249 25.5007L11.9984 25.8743L14.4792 23.3936L14.1056 23.02C13.1909 22.1054 12.6378 20.9256 12.5175 19.6539H9C9.12682 21.8635 10.0472 23.923 11.6249 25.5007Z" fill="#0473EA"/>
</g>
<defs>
<clipPath id="clip0_1_1443">
<rect width="18" height="18" fill="white" transform="translate(9 9)"/>
</clipPath>
</defs>
</svg>
