<svg width="48" height="48" viewBox="0 0 48 48" fill="none" xmlns="http://www.w3.org/2000/svg">
<rect opacity="0.1" width="48" height="48" rx="24" fill="#0473EA"/>
<path d="M12 15C11.7348 15 11.4804 15.1054 11.2929 15.2929C11.1054 15.4804 11 15.7348 11 16C11 16.2652 11.1054 16.5196 11.2929 16.7071C11.4804 16.8947 11.7348 17 12 17H14.22L16.844 27.5C17.067 28.39 17.864 29 18.781 29H31.251C32.154 29 32.921 28.4 33.158 27.53L35.75 18H33.656L31.25 27H18.78L16.157 16.5C16.0486 16.0692 15.7989 15.6873 15.4477 15.4153C15.0965 15.1434 14.6642 14.9971 14.22 15H12ZM30 29C28.355 29 27 30.355 27 32C27 33.645 28.355 35 30 35C31.645 35 33 33.645 33 32C33 30.355 31.645 29 30 29ZM21 29C19.355 29 18 30.355 18 32C18 33.645 19.355 35 21 35C22.645 35 24 33.645 24 32C24 30.355 22.645 29 21 29ZM24 15V20H21L25 24L29 20H26V15H24ZM21 31C21.564 31 22 31.436 22 32C22 32.564 21.564 33 21 33C20.436 33 20 32.564 20 32C20 31.436 20.436 31 21 31ZM30 31C30.564 31 31 31.436 31 32C31 32.564 30.564 33 30 33C29.436 33 29 32.564 29 32C29 31.436 29.436 31 30 31Z" fill="#0473EA"/>
</svg>
