<svg width="48" height="48" viewBox="0 0 48 48" fill="none" xmlns="http://www.w3.org/2000/svg">
<rect opacity="0.1" width="48" height="48" rx="24" fill="#0473EA"/>
<path d="M26.3588 27.2677C28.4811 27.2677 30.2015 25.5473 30.2015 23.425C30.2015 21.3027 28.4811 19.5823 26.3588 19.5823C24.2366 19.5823 22.5161 21.3027 22.5161 23.425C22.5161 25.5473 24.2366 27.2677 26.3588 27.2677Z" stroke="#0473EA" stroke-linecap="round" stroke-linejoin="round"/>
<path d="M29.0759 26.1422L30.0551 27.1213M29.453 27.7229L30.6567 26.5187L34.0447 29.9068L32.8405 31.1109L29.453 27.7229Z" stroke="#0473EA" stroke-linecap="round" stroke-linejoin="round"/>
<path d="M34.6562 27.2677V17.5365C34.6563 17.3201 34.6138 17.1059 34.531 16.9061C34.4483 16.7062 34.327 16.5246 34.1741 16.3716C34.0211 16.2186 33.8396 16.0973 33.6397 16.0145C33.4399 15.9317 33.2257 15.8891 33.0094 15.8891H15.9906C15.7743 15.8891 15.5601 15.9317 15.3603 16.0145C15.1604 16.0973 14.9789 16.2186 14.8259 16.3716C14.673 16.5246 14.5517 16.7062 14.469 16.9061C14.3862 17.1059 14.3437 17.3201 14.3438 17.5365V27.4182C14.3438 27.855 14.5173 28.2739 14.8261 28.5828C15.135 28.8916 15.5538 29.0651 15.9906 29.0651H27.5505" stroke="#0473EA" stroke-linecap="round" stroke-linejoin="round"/>
</svg>
