<svg width="36" height="36" viewBox="0 0 36 36" fill="none" xmlns="http://www.w3.org/2000/svg">
<rect opacity="0.1" width="36" height="36" rx="18" fill="#0473EA"/>
<g clip-path="url(#clip0_1_1460)">
<path d="M27 11.1C27 9.90728 26.0057 8.94678 24.8007 9.00229C23.7339 9.05144 22.8642 9.91101 22.8035 10.9773C22.7529 11.8666 23.2562 12.6442 24 12.9976V15.9C24 16.5627 23.4628 17.1 22.8 17.1H19.8977C19.6902 16.6634 19.3367 16.3098 18.9001 16.1023V12.9976C19.6439 12.6442 20.1471 11.8666 20.0966 10.9773C20.0359 9.91101 19.1662 9.05144 18.0993 9.00229C16.8944 8.94681 15.9001 9.90728 15.9001 11.1C15.9001 11.9377 16.3906 12.6606 17.1001 12.9976V16.1024C16.6634 16.3098 16.3098 16.6634 16.1024 17.1H12V12.9976C12.7438 12.6442 13.2471 11.8666 13.1965 10.9773C13.1359 9.91101 12.2662 9.05144 11.1993 9.00229C9.99434 8.94681 9.00002 9.90728 9.00002 11.1C9.00002 11.9377 9.49059 12.6606 10.2 12.9976V23.0024C9.45617 23.3558 8.95291 24.1334 9.0035 25.0227C9.06414 26.089 9.93384 26.9485 11.0007 26.9977C12.2057 27.0532 13.2 26.0927 13.2 24.9C13.2 24.0623 12.7094 23.3394 12 23.0024V18.9H16.1024C16.3098 19.3366 16.6634 19.6902 17.1 19.8976V23.0024C16.3561 23.3558 15.8529 24.1334 15.9035 25.0227C15.9641 26.089 16.8338 26.9486 17.9007 26.9977C19.1056 27.0532 20.1 26.0927 20.1 24.9C20.1 24.0623 19.6094 23.3394 18.9 23.0024V19.8976C19.3366 19.6902 19.6902 19.3366 19.8976 18.9H22.8C24.4568 18.9 25.8 17.5569 25.8 15.9V12.9976C26.5094 12.6606 27 11.9377 27 11.1Z" fill="#0473EA"/>
</g>
<defs>
<clipPath id="clip0_1_1460">
<rect width="18" height="18" fill="white" transform="translate(9 9)"/>
</clipPath>
</defs>
</svg>
