<svg width="48" height="48" viewBox="0 0 48 48" fill="none" xmlns="http://www.w3.org/2000/svg">
<rect opacity="0.1" width="48" height="48" rx="24" fill="#0473EA"/>
<g clip-path="url(#clip0_1_1559)">
<path d="M24 25.4062C24.3883 25.4062 24.7031 25.0915 24.7031 24.7031C24.7031 24.3148 24.3883 24 24 24C23.6117 24 23.2969 24.3148 23.2969 24.7031C23.2969 25.0915 23.6117 25.4062 24 25.4062Z" fill="#0473EA"/>
<path d="M24 12C17.3926 12 12 17.3929 12 24C12 30.6075 17.3929 36 24 36C30.6075 36 36 30.6071 36 24C36 17.3926 30.6071 12 24 12ZM24 14.8594C28.562 14.8594 32.354 18.2188 33.0324 22.5938H30.594C29.048 22.5938 27.5791 21.9734 26.5641 20.8917C25.1766 19.413 22.8236 19.4125 21.4359 20.8916C20.4209 21.9734 18.952 22.5938 17.4059 22.5938H14.9676C15.646 18.2188 19.438 14.8594 24 14.8594ZM24 26.8125C22.8369 26.8125 21.8906 25.8663 21.8906 24.7031C21.8906 23.54 22.8369 22.5938 24 22.5938C25.1632 22.5938 26.1094 23.54 26.1094 24.7031C26.1094 25.8663 25.1632 26.8125 24 26.8125ZM15.4884 27.3327C16.2933 27.0169 16.8744 26.8125 17.6719 26.8125C20.2354 26.8125 22.229 29.0969 21.8429 31.6636H21.8412C21.7838 32.0565 21.671 32.4371 21.5082 32.7954C18.7538 32.014 16.5249 29.9706 15.4884 27.3327ZM26.4924 32.7952C26.3251 32.4275 26.2147 32.0468 26.1588 31.6636H26.1571C25.7072 28.6727 28.4681 26.2049 31.33 26.9322C31.6317 27.0089 32.0092 27.1357 32.5115 27.3327C31.4752 29.9704 29.2464 32.0137 26.4924 32.7952Z" fill="#0473EA"/>
</g>
<defs>
<clipPath id="clip0_1_1559">
<rect width="24" height="24" fill="white" transform="translate(12 12)"/>
</clipPath>
</defs>
</svg>
